<svg xmlns="http://www.w3.org/2000/svg" viewBox="0 0 1261 639">
  <title>Asset 14</title>
  <g id="Layer_2" data-name="Layer 2">
    <g id="Layer_1-2" data-name="Layer 1">
      <rect x="0.5" y="0.5" width="1260" height="638" style="stroke: #86e85d;stroke-miterlimit: 10"/>
      <line x1="485.5" y1="118.5" x2="523.5" y2="350.5" style="fill: none;stroke: #86e85d;stroke-miterlimit: 10"/>
      <line x1="480.5" y1="108.5" x2="677.5" y2="122.5" style="fill: none;stroke: #86e85d;stroke-miterlimit: 10"/>
      <line x1="480.5" y1="108.5" x2="313.5" y2="151.5" style="fill: none;stroke: #86e85d;stroke-miterlimit: 10"/>
      <line x1="313.5" y1="151.5" x2="364.5" y2="342.5" style="fill: none;stroke: #86e85d;stroke-miterlimit: 10"/>
      <line x1="313.5" y1="151.5" x2="114.5" y2="113.5" style="fill: none;stroke: #86e85d;stroke-miterlimit: 10"/>
      <line x1="114.5" y1="113.5" x2="227.5" y2="455.5" style="fill: none;stroke: #86e85d;stroke-miterlimit: 10"/>
      <line x1="364.5" y1="342.5" x2="227.5" y2="455.5" style="fill: none;stroke: #86e85d;stroke-miterlimit: 10"/>
      <line x1="677.5" y1="122.5" x2="706.5" y2="319.5" style="fill: none;stroke: #86e85d;stroke-miterlimit: 10"/>
      <line x1="480.5" y1="108.5" x2="706.5" y2="319.5" style="fill: none;stroke: #86e85d;stroke-miterlimit: 10"/>
      <line x1="677.5" y1="122.5" x2="836.5" y2="199.5" style="fill: none;stroke: #86e85d;stroke-miterlimit: 10"/>
      <line x1="706.5" y1="319.5" x2="836.5" y2="199.5" style="fill: none;stroke: #86e85d;stroke-miterlimit: 10"/>
      <line x1="523.5" y1="350.5" x2="720.5" y2="438.5" style="fill: none;stroke: #86e85d;stroke-miterlimit: 10"/>
      <line x1="720.5" y1="438.5" x2="504.5" y2="511.5" style="fill: none;stroke: #86e85d;stroke-miterlimit: 10"/>
      <line x1="720.5" y1="438.5" x2="872.5" y2="523.5" style="fill: none;stroke: #86e85d;stroke-miterlimit: 10"/>
      <line x1="952.5" y1="161.5" x2="872.5" y2="523.5" style="fill: none;stroke: #86e85d;stroke-miterlimit: 10"/>
      <line x1="952.5" y1="161.5" x2="1008.5" y2="449.5" style="fill: none;stroke: #86e85d;stroke-miterlimit: 10"/>
      <line x1="952.5" y1="161.5" x2="1093.5" y2="209.5" style="fill: none;stroke: #86e85d;stroke-miterlimit: 10"/>
      <line x1="1008.5" y1="449.5" x2="1141.5" y2="376.5" style="fill: none;stroke: #86e85d;stroke-miterlimit: 10"/>
    </g>
  </g>
</svg>
